<?xml version="1.0" standalone="no"?><!DOCTYPE svg PUBLIC "-//W3C//DTD SVG 1.1//EN" "http://www.w3.org/Graphics/SVG/1.1/DTD/svg11.dtd"><svg t="1723531542060" class="icon" viewBox="0 0 1024 1024" version="1.1" xmlns="http://www.w3.org/2000/svg" p-id="6860" xmlns:xlink="http://www.w3.org/1999/xlink" width="200" height="200"><path d="M128 0h768a128 128 0 0 1 128 128v768a128 128 0 0 1-128 128H128A128 128 0 0 1 0 896V128A128 128 0 0 1 128 0z m638.528 351.488c25.6-22.848 47.808-51.328 65.472-83.584-23.616 12.8-48.896 21.504-75.52 25.344 27.264-19.968 48.064-51.52 57.856-89.152A240 240 0 0 1 730.88 243.2c-23.872-31.424-58.048-51.2-95.808-51.2-72.576 0-131.392 72.32-131.392 161.536 0 12.8 1.216 25.088 3.392 36.8-108.992-6.592-205.888-70.912-270.592-168.576a189.888 189.888 0 0 0-17.792 81.024c0 56 23.168 105.6 58.432 134.4a110.848 110.848 0 0 1-59.392-20.096v2.176c0 78.08 45.184 143.36 105.28 158.4a113.344 113.344 0 0 1-34.624 5.504 97.28 97.28 0 0 1-24.704-2.944c16.704 64.512 65.28 110.976 122.688 112.128C341.44 735.808 284.8 761.6 223.36 761.6c-10.624 0-21.184-0.896-31.424-2.432C250.112 805.312 319.104 832 393.28 832c241.472 0 373.568-246.272 373.568-459.52 0-7.04 0-14.08-0.32-20.992z" p-id="6861"></path></svg>